# xmcd
#
# Track frame offsets:
#        150
#        17775
#        37350
#        53250
#        69900
#        87075
#        112575
#        134175
#        150600
#        167475
#        191400
#        205800
#        226650
#        242550
#        259350
#        276750
#        290325
#        306075
#        321525
#
# Disc length: 4437 seconds
#
# Revision: 0
# Processed by: cddbd v1.5.2PL0 Copyright (c) Steve Scherf et al.
# Submitted via: CDGFix 3.3h
#
DISCID=04115313
DTITLE=Various Artist - QH
DYEAR=1900
DGENRE=Karaoke
TTITLE0=Dixie Chicks - Not Ready To Make Nice
TTITLE1=Dixie Chicks - Goodbye Earl
TTITLE2=Dixie Chicks - Ready To Run
TTITLE3=Dixie Chicks - Wide Open Spaces
TTITLE4=Dixie Chicks - Landslide
TTITLE5=Dixie Chicks - Travellin Soldier
TTITLE6=Dixie Chicks - Cowboy Take Me Away
TTITLE7=Dixie Chicks - Sin Wagon
TTITLE8=Dixie Chicks - I Can Love You Better
TTITLE9=Dixie Chicks - Cold Day In July
TTITLE10=Dixie Chicks - Theres Your Trouble
TTITLE11=Dixie Chicks - Godspeed
TTITLE12=Dixie Chicks - Tonight The Heartaches On Me
TTITLE13=Dixie Chicks - Long Time Gone
TTITLE14=Dixie Chicks - Heartbreak Town
TTITLE15=Dixie Chicks - If I Fall Youre Going Down With Me
TTITLE16=Dixie Chicks - Without You
TTITLE17=Dixie Chicks - Once Youve Loved Somebody
TTITLE18=Dixie Chicks - Some Days You Gotta Dance
EXTD=
EXTT0=
EXTT1=
EXTT2=
EXTT3=
EXTT4=
EXTT5=
EXTT6=
EXTT7=
EXTT8=
EXTT9=
EXTT10=
EXTT11=
EXTT12=
EXTT13=
EXTT14=
EXTT15=
EXTT16=
EXTT17=
EXTT18=
PLAYORDER=
